<?xml version="1.0" standalone="no"?>
<!DOCTYPE svg PUBLIC "-//W3C//DTD SVG 20010904//EN"
 "http://www.w3.org/TR/2001/REC-SVG-20010904/DTD/svg10.dtd">
<svg version="1.0" xmlns="http://www.w3.org/2000/svg"
 width="176.000000pt" height="176.000000pt" viewBox="0 0 176.000000 176.000000"
 preserveAspectRatio="xMidYMid meet">
<metadata>
Created by potrace 1.14, written by Peter Selinger 2001-2017
</metadata>
<g transform="translate(0.000000,176.000000) scale(0.100000,-0.100000)"
fill="#000000" stroke="none">
<path d="M767 1497 c-19 -29 -62 -101 -97 -162 -34 -60 -104 -180 -155 -265
-172 -289 -475 -807 -480 -821 -3 -9 25 -34 78 -69 l82 -54 290 -1 c160 0 297
3 306 7 9 4 40 48 70 98 29 49 57 90 61 90 5 0 16 -16 26 -36 12 -27 42 -54
107 -98 l90 -61 296 0 297 0 -15 30 c-9 16 -77 133 -153 260 -75 126 -176 302
-225 390 -49 88 -106 189 -128 225 -22 35 -67 116 -100 180 -89 170 -111 199
-199 265 -111 84 -110 84 -151 22z m119 -121 l32 -21 -33 -56 c-18 -30 -45
-77 -60 -105 -15 -27 -78 -134 -140 -239 -62 -104 -178 -303 -259 -441 -81
-138 -153 -259 -160 -269 -12 -16 -17 -15 -69 20 -33 22 -54 42 -50 49 4 6 28
45 53 86 54 86 185 311 225 385 15 28 106 184 203 347 l177 297 25 -16 c14 -9
39 -26 56 -37z m231 -311 c72 -126 175 -311 230 -410 55 -99 113 -202 128
-230 16 -27 52 -89 81 -137 29 -49 49 -88 46 -89 -4 -1 -99 -3 -213 -5 l-205
-3 -43 82 c-86 164 -120 223 -145 246 l-25 23 -44 -68 c-24 -38 -56 -91 -72
-119 -15 -27 -43 -76 -62 -107 l-34 -58 -225 0 -225 0 19 28 c40 58 302 506
302 518 0 2 30 52 67 111 36 60 71 117 77 128 58 106 201 334 207 328 4 -5 65
-111 136 -238z m-102 -711 c39 -69 42 -89 8 -51 -41 43 -71 117 -48 117 2 0
20 -30 40 -66z"/>
</g>
</svg>
